<?xml version="1.0" encoding="utf-8"?>
<!-- Generator: Adobe Illustrator 27.0.0, SVG Export Plug-In . SVG Version: 6.00 Build 0)  -->
<svg version="1.1" id="Layer_1" xmlns="http://www.w3.org/2000/svg" xmlns:xlink="http://www.w3.org/1999/xlink" x="0px" y="0px"
	 viewBox="0 0 250 250" style="enable-background:new 0 0 250 250;" xml:space="preserve">
<style type="text/css">
	.st0{fill:url(#SVGID_1_);}
	.st1{fill:url(#SVGID_00000026155850261945119870000011985173131042298539_);}
	.st2{fill:url(#SVGID_00000141451449472377306860000017313589459217916572_);}
</style>
<g>
	<linearGradient id="SVGID_1_" gradientUnits="userSpaceOnUse" x1="9.094947e-13" y1="125" x2="250" y2="125">
		<stop  offset="8.471185e-07" style="stop-color:#72C270"/>
		<stop  offset="1" style="stop-color:#1E5D2E"/>
	</linearGradient>
	<path class="st0" d="M125.19,0.1C56.12-0.03,0.5,55.2,0,124.87c0.2,68.59,54.96,124.82,124.83,125.03
		c68.63,0.2,125.02-55.06,125.17-124.72C250.14,57.01,195.52,0.23,125.19,0.1z M158.88,77.92c0.28-0.95,0.68-1.17,1.63-0.84
		c2.41,0.85,4.68,1.95,6.88,3.24c0.84,0.49,0.63,0.81-0.02,1.25c-0.59,0.4-1.28,0.46-1.91,0.7c-3.1,1.14-6.09,2.46-8.64,4.98
		C157.44,83.94,158.01,80.9,158.88,77.92z M119.56,88.44c0.44-0.6,3.78-0.68,4.59-0.24c3.87,2.1,7.73,4.24,11.63,6.3
		c2.38,1.26,4.98,0.35,5.86-1.98c0.16-0.42,0.24-0.87,0.39-1.41c2.24,1.1,4.53,1.02,6.86,0.43c2.24-0.57,4.33-1.52,6.57-2.71
		c-0.36,1.06-0.81,1.82-0.91,2.68c-0.34,2.73,1.19,5,3.94,5.91c1.69,0.56,3.46,0.41,5.2,0.62c0.29,0.04,0.57,0.07,0.89,0.11
		c-0.27,1.07-0.85,1.41-1.9,1.4c-4.38-0.06-8.75,0.02-13.13-0.04c-2.32-0.03-3.94,0.84-4.87,3c-0.42,0.97-1.01,1.87-1.47,2.83
		c-0.26,0.54-0.54,0.6-1.07,0.35c-3.2-1.49-6.42-2.96-9.64-4.4c-0.51-0.23-0.61-0.57-0.61-1.07c0-1.48,0.07-2.98-0.09-4.44
		c-0.28-2.42-1.83-3.7-4.27-3.64c-3.2,0.07-6.37,0.41-9.53,0.87c-0.41,0.06-0.82,0.09-1.52,0.16
		C117.57,91.44,118.51,89.9,119.56,88.44z M186.7,129.85c1.69,1.94,3.4,3.87,5.08,5.83c0.85,0.99,1.71,1.95,3.15,2.12
		c-0.12,0.15-0.15,0.22-0.2,0.25c-1.73,0.93-1.73,0.93-2.88-0.64c-1.78-2.45-3.57-4.9-5.35-7.35
		C186.57,129.99,186.64,129.92,186.7,129.85z M236.44,160.33c-4.86,15.19-12.41,28.88-22.87,40.93
		c-11,12.68-24.05,22.67-39.29,29.71c-9.85,4.55-20.14,7.77-30.87,9.44c-8.48,1.31-17.02,1.75-25.59,1.21
		c-17.06-1.07-33.13-5.7-48.19-13.76c-8.93-4.78-17.13-10.6-24.48-17.6c-0.48-0.45-0.75-0.88-0.66-1.57
		c0.4-3.37-0.16-6.66-0.89-9.93c-0.16-0.69-0.2-1.19,0.52-1.72c1.91-1.43,2.23-3.63,2.38-5.81c0.16-2.36,0.14-4.72-0.48-7.02
		c-0.15-0.55-0.02-0.83,0.46-1.09c4.17-2.25,4.95-5.95,4.32-10.22c-0.39-2.66-1.47-5.09-2.65-7.48c-0.41-0.83-1.14-1.31-1.83-1.84
		c-4.76-3.61-9.48-7.27-13.61-11.62c-0.73-0.77-1.43-1.58-2.1-2.4c-0.79-0.96-1.2-1.99-1.22-3.31c-0.06-3.46-1.18-6.72-2.36-9.93
		c-1.11-2.99-2.41-5.91-3.75-8.81c-1.07-2.31-1.33-4.89-2.08-7.33c-1.13-3.72-2.31-7.41-4.58-10.63c-0.85-1.21-1.92-2.12-3.33-2.66
		c-1.22-0.46-2.38-0.33-3.84,0.2c0.63-3.04,1.17-5.87,1.8-8.67c2.25-10,5.98-19.45,10.68-28.54c0.63-1.21,1.42-2.19,2.56-2.98
		c4.61-3.17,9.23-6.31,14.46-8.42c2.19-0.88,4.45-1.3,6.78-1.41c4.99-0.24,9.5-1.89,13.74-4.42c5.09-3.03,9.27-7.14,13.32-11.38
		c1.16-1.22,2.51-2.21,3.73-3.33c1.88-1.73,3.52-3.68,5.2-5.6c2.01-2.3,4.16-4.42,6.74-6.1c5.1-3.33,9.06-7.85,12.88-12.51
		c0.29-0.35,0.65-0.67,0.86-1.07c1.26-2.46,3.44-3.05,5.99-3.34c6.81-0.77,13.63-1.35,20.48-1.09c7.95,0.3,15.83,1.23,23.57,3.14
		c0.56,0.14,0.92,0.26,0.97,0.98c0.44,5.9,2.03,11.5,4.62,16.81c0.34,0.71,0.31,1.01-0.43,1.35c-1.85,0.84-3.5,1.99-4.89,3.49
		c-0.92,0.99-2.13,1.29-3.21,0.61c-5.06-3.17-10.23-1.93-15.43-0.56c-0.18,0.05-0.36,0.12-0.55,0.17c-3.76,1-6.56,3.05-7.84,6.9
		c-0.39,1.18-1.03,2.28-1.58,3.41c-0.45,0.93-1.01,1.74-1.87,2.39c-1.43,1.08-1.94,2.72-2.13,4.4c-0.29,2.51,0.08,5,0.58,7.47
		c0.23,1.13,1.08,1.79,1.86,2.34c-3.68,3.43-8.02,5.9-12.34,8.4c-0.99,0.57-2,1.1-2.98,1.68c-1.99,1.16-2.66,2.79-2.13,5.02
		c0.18,0.77,0.37,1.54,0.58,2.42c-1.2-0.12-2.2-0.55-3.24-0.83c-2.12-0.58-4.08,0.29-4.99,2.31c-1.09,2.43-2.1,4.88-3.16,7.32
		c-0.58,1.31-0.48,2.58,0.15,3.84c1.15,2.27,2.22,4.59,3.77,6.63c0.38,0.5,0.2,0.64-0.24,0.9c-1.99,1.17-3.79,2.57-4.99,4.58
		c-2.04,3.42-5.34,5.46-8.39,7.78c-2.77,2.11-5.34,4.39-6.87,7.63c-1.03,2.17-1.51,4.45-1.72,6.8c-0.23,2.58-0.59,5.13-1.17,7.65
		c-0.19,0.81-0.38,1.65-0.87,2.34c-1.46,2.04-1.48,4.27-0.85,6.54c1.29,4.64,3.94,8.52,6.97,12.17c2.44,2.94,5.23,5.52,8.53,7.49
		c4.91,2.92,10.13,3.49,15.59,1.94c2.19-0.62,4.34-1.38,6.51-2.09c2.15-0.7,4.19-0.47,6.16,0.61c2.14,1.18,4.16,2.51,5.85,4.32
		c1.58,1.69,2.25,3.74,1.99,5.97c-0.45,3.76,0.66,6.89,3.35,9.5c1.45,1.41,2.88,2.82,4.33,4.22c1.06,1.02,1.26,2.15,0.69,3.51
		c-0.68,1.63-1.62,3.09-2.53,4.58c-1.64,2.68-2.59,5.49-1.59,8.66c0.27,0.84,0.67,1.62,1.09,2.37c3.65,6.49,7.33,12.97,10.95,19.48
		c1.04,1.87,2.43,2.79,4.61,2.62c6.93-0.55,13.42-2.45,19.39-6.08c4.82-2.93,8.58-6.88,11.39-11.75c2.86-4.96,6.24-9.53,9.9-13.92
		c0.1-0.12,0.14-0.28,0.21-0.42c0.09,0.06,0.19,0.12,0.28,0.18c-0.43,1.46-0.85,2.93-1.28,4.39c-0.38,1.31-0.71,2.64-0.78,4.02
		c-0.17,3.69,2.84,5.95,6.28,4.65c3.17-1.19,5.48-3.52,7.48-6.15c4.17-5.51,6.07-11.93,7.23-18.62c0.14-0.82,0.31-1.64,0.29-2.49
		c-0.05-1.78-1.05-3.18-2.67-3.74c-1.61-0.55-3.35-0.12-4.41,1.26c-1.44,1.87-2.73,3.85-4.17,5.71c-1.01,1.3-1.99,2.7-3.66,3.23
		c-1.45-7.83-1.26-15.48,2.41-22.73c1.42-2.81,3.72-4.99,5.6-7.47c2.04-2.7,4.22-5.3,5.73-8.36c1.17-2.38,2.1-4.85,1.7-7.55
		c-0.52-3.56-3.28-5.54-6.85-5.07c-0.22,0.03-0.45,0.05-0.91,0.09c1.23-1.56,2.37-2.96,3.47-4.39c3.58-4.63,7.13-9.29,9.94-14.46
		c0.67-1.24,1.27-2.51,1.68-3.86c0.92-3,0.42-5.63-2.11-7.8c2.74,0.21,5.48,0.28,7.44,2.67c2.59,3.17,4.57,6.72,6.59,10.25
		c1.36,2.37,2.57,4.84,4.15,7.08c0.84,1.2,1.83,2.27,3.29,2.69c2.8,0.81,5.38-1.04,5.62-4.01c0.22-2.71-0.26-5.38-0.59-8.06
		c-0.8-6.48-1.95-12.93-1.72-19.5c0.03-0.88,0.17-1.73,0.39-2.58c0.11-0.42,0.38-0.69,0.79-0.69c0.41,0,0.36,0.42,0.43,0.7
		c1.92,7.02,3.09,14.16,3.67,21.41c0.44,5.4,0.49,10.79,0.14,16.18C241.09,141.85,239.36,151.21,236.44,160.33z"/>
	
		<linearGradient id="SVGID_00000069395460802764619850000001040623950615466160_" gradientUnits="userSpaceOnUse" x1="90.4872" y1="60.9161" x2="108.7084" y2="60.9161">
		<stop  offset="8.471185e-07" style="stop-color:#72C270"/>
		<stop  offset="1" style="stop-color:#1E5D2E"/>
	</linearGradient>
	<path style="fill:url(#SVGID_00000069395460802764619850000001040623950615466160_);" d="M93.72,58.44c0.28,1.3,0.21,2.5-0.64,3.66
		c-0.99,1.35-1.73,2.85-2.28,4.45c-1.03,3.04,0.51,5.66,3.67,6.07c1.16,0.15,2.35,0.02,3.52,0.02c0,0.03,0,0.05,0,0.08
		c0.91,0,1.82,0,2.74,0c2.09-0.01,3.63-0.91,4.54-2.83c0.95-1.99,1.9-3.97,2.91-5.93c0.64-1.24,0.67-2.5,0.15-3.73
		c-1.25-2.97-2.53-5.93-3.87-8.87c-0.79-1.73-2.73-2.61-4.56-2.13c-1.39,0.36-2.76,0.82-4.13,1.28c-2.2,0.74-3.24,2.66-2.72,4.93
		C93.29,56.44,93.5,57.44,93.72,58.44z"/>
	
		<linearGradient id="SVGID_00000028295647032041303870000012441674799704236204_" gradientUnits="userSpaceOnUse" x1="82.7852" y1="60.1002" x2="91.5686" y2="60.1002">
		<stop  offset="8.471185e-07" style="stop-color:#72C270"/>
		<stop  offset="1" style="stop-color:#1E5D2E"/>
	</linearGradient>
	<path style="fill:url(#SVGID_00000028295647032041303870000012441674799704236204_);" d="M82.79,60.91
		c-0.01,2.58,1.69,4.42,4.06,4.37c2.78-0.06,4.94-2.17,4.71-4.73c-0.12-1.35-0.59-2.66-1.27-3.83c-0.93-1.59-3.09-2.21-4.8-1.52
		c-2.24,0.91-2.74,2.75-2.7,4.91C82.79,60.37,82.79,60.64,82.79,60.91z"/>
</g>
</svg>
